<?xml version="1.0" standalone="no"?><!DOCTYPE svg PUBLIC "-//W3C//DTD SVG 1.1//EN" "http://www.w3.org/Graphics/SVG/1.1/DTD/svg11.dtd"><svg t="1633269213736" class="icon" viewBox="0 0 1024 1024" version="1.1" xmlns="http://www.w3.org/2000/svg" p-id="2419" xmlns:xlink="http://www.w3.org/1999/xlink" width="200" height="200"><defs><style type="text/css"></style></defs><path d="M642.910208 221.186048l0 88.438784c92.387328 47.53408 155.58656 143.822848 155.58656 254.875648 0 158.205952-128.251904 286.457856-286.457856 286.457856s-286.457856-128.251904-286.457856-286.457856c0-111.0528 63.197184-207.341568 155.58656-254.875648l0-88.438784C242.917376 273.92 144.697344 407.728128 144.697344 564.50048 144.697344 767.37536 309.161984 931.84 512.038912 931.84s367.33952-164.46464 367.33952-367.33952C879.378432 407.728128 781.160448 273.92 642.910208 221.186048z" p-id="2420"></path><path d="M481.579008 491.481088l60.915712 0c22.335488 0 40.441856-18.106368 40.441856-40.441856L582.936576 138.745856c0-22.33344-18.106368-40.441856-40.441856-40.441856l-60.915712 0c-22.335488 0-40.441856 18.106368-40.441856 40.441856l0 312.295424C441.1392 473.37472 459.245568 491.481088 481.579008 491.481088z" p-id="2421"></path></svg>